<svg width="232" height="70" viewBox="0 0 232 70" fill="none" xmlns="http://www.w3.org/2000/svg">
<circle cx="36.7944" cy="35.5425" r="33.9038" fill="#478767"/>
<path d="M18.7729 43.0324L30.1931 49.485V15.6888L48.6785 26.502L35.0286 34.0836L48.6785 45.7668L0 64.5336L28.1296 69.4072L71.852 49.485L59.4744 37.9366L55.2553 34.0836L73.6599 26.502L60.3321 18.4629L30.5655 0L18.7729 3.55273V43.0324Z" fill="white"/>
<path d="M80.3421 53.4375V26.2957H90.4427C91.9032 26.2957 93.228 26.5994 94.417 27.2069C95.6061 27.8014 96.5431 28.6544 97.2281 29.766C97.9261 30.8775 98.275 32.1829 98.275 33.6821C98.275 34.2896 98.191 34.9164 98.023 35.5627C97.8679 36.2089 97.5965 36.8034 97.2088 37.3463C96.8339 37.8891 96.317 38.3027 95.6578 38.5871C96.5108 38.7938 97.1958 39.1816 97.7128 39.7503C98.2298 40.306 98.624 40.9523 98.8954 41.689C99.1669 42.4128 99.3478 43.1559 99.4383 43.9185C99.5287 44.681 99.574 45.3725 99.574 45.9929C99.574 47.3888 99.2121 48.6489 98.4883 49.7734C97.7645 50.8978 96.7887 51.7896 95.5609 52.4488C94.3459 53.1079 93.0018 53.4375 91.5284 53.4375H80.3421ZM85.6929 48.8816H90.9661C91.677 48.8816 92.3232 48.7135 92.9048 48.3775C93.4865 48.0285 93.9517 47.5568 94.3007 46.9622C94.6497 46.3548 94.8242 45.6698 94.8242 44.9072C94.8242 44.261 94.6497 43.6471 94.3007 43.0655C93.9517 42.4838 93.4865 42.0121 92.9048 41.6502C92.3232 41.2754 91.677 41.088 90.9661 41.088H85.6929V48.8816ZM85.6929 36.629H89.8223C90.6753 36.629 91.4056 36.3511 92.013 35.7953C92.6205 35.2396 92.9242 34.5222 92.9242 33.6434C92.9242 32.7386 92.6205 32.0536 92.013 31.5883C91.4056 31.1101 90.6753 30.871 89.8223 30.871H85.6929V36.629ZM120.579 41.1074V53.4375H115.229V42.5808C115.229 41.8958 115.061 41.2818 114.725 40.739C114.402 40.1832 113.962 39.7438 113.406 39.4207C112.863 39.0976 112.256 38.936 111.584 38.936C110.912 38.936 110.298 39.0976 109.742 39.4207C109.186 39.7438 108.747 40.1832 108.424 40.739C108.101 41.2818 107.939 41.8958 107.939 42.5808V53.4375H102.588L102.569 24.357H107.92L107.939 35.4851C108.585 34.8647 109.341 34.3801 110.207 34.0311C111.086 33.6821 112.01 33.5077 112.98 33.5077C114.389 33.5077 115.662 33.8502 116.799 34.5352C117.949 35.2202 118.867 36.1378 119.552 37.2881C120.237 38.4255 120.579 39.6986 120.579 41.1074ZM138.306 34.0505H143.657V53.4375H138.287L138.035 51.4213C137.531 52.1709 136.885 52.7783 136.096 53.2436C135.308 53.7089 134.384 53.9416 133.324 53.9416C131.876 53.9416 130.526 53.6701 129.272 53.1273C128.018 52.5845 126.913 51.8348 125.957 50.8784C125.001 49.922 124.251 48.8169 123.708 47.5632C123.178 46.2966 122.913 44.9395 122.913 43.492C122.913 42.109 123.165 40.8166 123.669 39.6146C124.173 38.4126 124.884 37.3527 125.802 36.4351C126.72 35.5174 127.773 34.8001 128.962 34.2831C130.164 33.7662 131.456 33.5077 132.839 33.5077C134.028 33.5077 135.095 33.7597 136.038 34.2637C136.995 34.7678 137.828 35.4076 138.539 36.1831L138.306 34.0505ZM133.188 48.804C134.067 48.804 134.862 48.5778 135.573 48.1255C136.284 47.6731 136.846 47.0656 137.26 46.3031C137.673 45.5276 137.88 44.6746 137.88 43.744C137.88 42.8005 137.673 41.9475 137.26 41.1849C136.846 40.4224 136.284 39.8149 135.573 39.3625C134.862 38.9102 134.067 38.684 133.188 38.684C132.297 38.684 131.489 38.9102 130.765 39.3625C130.041 39.8149 129.466 40.4288 129.039 41.2043C128.613 41.9669 128.4 42.8134 128.4 43.744C128.4 44.6746 128.613 45.5276 129.039 46.3031C129.479 47.0656 130.061 47.6731 130.784 48.1255C131.508 48.5778 132.309 48.804 133.188 48.804ZM146.777 46.3419V34.0505H152.128V44.8684C152.128 45.5535 152.29 46.1738 152.613 46.7296C152.949 47.2724 153.395 47.7054 153.951 48.0285C154.506 48.3516 155.114 48.5132 155.773 48.5132C156.445 48.5132 157.059 48.3516 157.615 48.0285C158.17 47.7054 158.61 47.2724 158.933 46.7296C159.256 46.1738 159.418 45.5535 159.418 44.8684V34.0505H164.769L164.788 53.4375H159.437L159.418 51.9641C158.771 52.5845 158.009 53.0691 157.13 53.4181C156.264 53.7671 155.346 53.9416 154.377 53.9416C152.981 53.9416 151.708 53.5991 150.558 52.9141C149.408 52.229 148.49 51.3179 147.805 50.1805C147.12 49.0302 146.777 47.7506 146.777 46.3419ZM168.313 53.4375L180.876 31.6465H167.131V26.2957H187.08V31.6465L174.478 53.4375H168.313ZM189.821 53.4375L202.384 31.6465H188.638V26.2957H208.587V31.6465L195.986 53.4375H189.821ZM211.328 53.4375L223.891 31.6465H210.146V26.2957H230.095V31.6465L217.493 53.4375H211.328Z" fill="#478767"/>
</svg>
